<?xml version="1.0" encoding="UTF-8"?>
<svg version="1.1" xmlns="http://www.w3.org/2000/svg" width="270" height="270">
<path d="M0 0 C89.1 0 178.2 0 270 0 C270 89.1 270 178.2 270 270 C180.9 270 91.8 270 0 270 C0 180.9 0 91.8 0 0 Z " fill="#8FECFD" transform="translate(0,0)"/>
<path d="M0 0 C6.67734861 5.48111288 12.35522848 13.84703746 13.2734375 22.609375 C13.56920817 31.75551406 12.22800612 39.87074233 8 48 C2.25792989 53.85714165 -7.07222654 54.80894996 -14.921875 55.11328125 C-17.28591691 55.12329838 -19.63797473 55.09222658 -22 55 C-24.1452268 50.70954641 -24.63836686 46.71288124 -24 42 C-22.77770744 38.36128575 -21.17079028 34.95196309 -19.5 31.5 C-19.07074219 30.5821875 -18.64148438 29.664375 -18.19921875 28.71875 C-17.14623549 26.47238571 -16.07977474 24.23357658 -15 22 C-21.29605591 19.21081145 -21.29605591 19.21081145 -28 19 C-43.32451748 27.31436586 -50.56200713 42.61880167 -55.48046875 58.65625 C-64.96511203 91.62071482 -62.04386846 120.20042098 -45.71484375 150.25 C-41.77299899 154.27265707 -35.69237155 154.30746032 -30.33837891 154.48144531 C-18.29226685 154.57454116 -8.21483862 152.39899593 1 144 C2.53643653 141.5596308 3.88153538 139.21500885 5.1796875 136.65625 C5.55377243 135.93846375 5.92785736 135.22067749 6.3132782 134.48114014 C7.51488516 132.16115561 8.6965086 129.83180225 9.875 127.5 C10.27774139 126.7112146 10.68048279 125.9224292 11.09542847 125.10974121 C21.08438201 105.87378463 21.08438201 105.87378463 26.52734375 85.046875 C26.68332031 84.04140625 26.83929688 83.0359375 27 82 C27.66 81.67 28.32 81.34 29 81 C32.02157703 91.21126433 29.58552847 102.78416437 28.02856445 113.11035156 C27.68917672 115.36386665 27.36395615 117.61907528 27.04101562 119.875 C25.82633992 128.23100243 24.38228085 136.50799316 22.66772461 144.77587891 C22.13534418 147.34648804 21.64698071 149.91654807 21.18359375 152.5 C19.90515497 158.49728348 18.83939661 163.18296664 13.8125 167 C11.17578125 168.51171875 11.17578125 168.51171875 8 170 C7.02812744 170.45560303 7.02812744 170.45560303 6.03662109 170.92041016 C-6.10849257 176.50453133 -17.05257215 179.35726507 -30.5 179.3125 C-31.46808594 179.32861328 -32.43617187 179.34472656 -33.43359375 179.36132812 C-42.01336919 179.36708636 -50.72203098 178.26263071 -57.15625 172.1015625 C-68.36853488 159.32145813 -75.97797925 144.54556402 -80 128 C-80.17732666 127.30640381 -80.35465332 126.61280762 -80.53735352 125.89819336 C-82.50887494 116.98467036 -82.33684608 107.97854664 -82.31567383 98.8972168 C-82.31254164 96.09969035 -82.33593537 93.30325363 -82.36132812 90.50585938 C-82.44249345 67.59110855 -79.83326895 35.18351981 -64 17 C-63.49597656 16.3915625 -62.99195312 15.783125 -62.47265625 15.15625 C-62.00730469 14.6096875 -61.54195312 14.063125 -61.0625 13.5 C-60.59972656 12.9534375 -60.13695313 12.406875 -59.66015625 11.84375 C-43.01012363 -6.64758035 -22.01350685 -13.32573821 0 0 Z " fill="#010202" transform="translate(159,47)"/>
</svg>
